<svg aria-hidden="true" style="position: absolute; width: 0; height: 0; overflow: hidden;" version="1.1" xmlns="http://www.w3.org/2000/svg" xmlns:xlink="http://www.w3.org/1999/xlink">
<defs>
<symbol id="icon-face" viewBox="0 0 19 32">
<path  d="M10.666 12.791v-2.133c0-1.687 0.26-5.307 2.635-5.307h3.705v-5.049c-0.525-0.073-1.625-0.301-3.716-0.301-4.367 0-6.89 1.404-6.89 6.391v6.4h-6.4v4.266h6.4v14.932h4.266v-14.932h5.333l1.069-4.266h-6.402z"></path>
</symbol>
<symbol id="icon-twit" viewBox="0 0 38 32">
<path  d="M34.8 4.786l2.4-4.786-3.6 2.39-0.701 0.35c-1.43-1.666-3.528-2.741-5.899-2.741-4.308 0-7.8 2.882-7.8 7.181 0 0.586 0.077 1.75 0.199 2.294l-0.199 0.101c0 0-15.6-2.395-16.8-8.381 0 0-3.6 5.986 2.4 10.774 0 0-2.4 1.198-3.6 0 0 0 0 3.593 6 7.183 0 0-2.4 1.195-3.6 0 0 0 4.8 4.786 7.2 4.786 0 0 0 3.595-10.8 3.595 0 0 13.654 8.973 26.4-1.198 6.48-5.172 8.057-11.724 8.143-16.666 0.151-0.607 0.257-1.234 0.257-1.889v-0.6l3.6-3.59-3.6 1.195z"></path>
</symbol>
<symbol id="icon-cofe" viewBox="0 0 32 32">
<path fill="#5ab963" style="fill: var(--color2, #5ab963)" d="M31.406 14.282c-0.536-0.695-1.347-1.094-2.223-1.094h-2.894c0.012-0.311 0.018-0.623 0.018-0.937 0-0.518-0.42-0.937-0.937-0.937h-24.432c-0.518-0-0.937 0.42-0.937 0.937 0 5.574 1.895 10.725 5.064 14.059h-4.127c-0.325 0-0.627 0.168-0.797 0.444s-0.186 0.621-0.041 0.912c1.315 2.63 4.026 4.33 6.906 4.33h12.298c2.879 0 5.589-1.7 6.905-4.33 0.145-0.291 0.13-0.636-0.041-0.912s-0.472-0.444-0.797-0.444h-4.127c0.563-0.593 1.087-1.243 1.566-1.943 1.998-0.23 3.954-1.041 5.556-2.311 1.749-1.387 3.006-3.271 3.541-5.304 0.227-0.865 0.046-1.765-0.498-2.47zM17.871 18.263v2.424h-1.875v-2.424l0.937-0.937 0.937 0.937zM23.6 28.172c-1.101 1.209-2.664 1.95-4.297 1.95h-12.298c-1.633 0-3.197-0.741-4.298-1.95h20.893zM18.442 26.31h-10.578c-3.505-2.642-5.742-7.582-5.97-13.122h14.102v2.424l-1.6 1.6c-0.176 0.176-0.275 0.414-0.275 0.663v3.749c0 0.518 0.42 0.937 0.937 0.937h3.749c0.518 0 0.937-0.42 0.937-0.937v-3.749c0-0.249-0.099-0.487-0.275-0.663l-1.6-1.6v-2.436h6.542c-0.203 4.93-2.098 10.215-5.97 13.134zM30.091 16.276c-0.734 2.793-3.129 5.079-6.018 5.928 1.056-2.126 1.768-4.558 2.070-7.142h3.039c0.399 0 0.634 0.228 0.739 0.364 0.186 0.241 0.248 0.551 0.17 0.849z"></path>
<path fill="#000" style="fill: var(--color3, #000)" d="M19.871 7.741c-0.132-0.118-0.625-0.664-0.625-1.176 0-0.491 0.466-1.030 0.625-1.176 0.797-0.714 1.236-1.628 1.236-2.573s-0.439-1.859-1.236-2.573c-0.386-0.345-0.978-0.313-1.323 0.073s-0.313 0.978 0.073 1.323c0.401 0.359 0.612 0.766 0.612 1.176s-0.212 0.818-0.612 1.176c-0.128 0.115-1.249 1.159-1.249 2.573s1.121 2.458 1.249 2.573c0.386 0.345 0.978 0.313 1.324-0.073s0.313-0.978-0.073-1.324zM14.247 7.741c-0.132-0.118-0.625-0.664-0.625-1.176 0-0.491 0.466-1.030 0.625-1.176 0.797-0.714 1.236-1.628 1.236-2.573s-0.439-1.859-1.236-2.573c-0.386-0.345-0.978-0.313-1.323 0.073s-0.313 0.978 0.073 1.323c0.401 0.359 0.612 0.766 0.612 1.176s-0.212 0.818-0.612 1.176c-0.128 0.115-1.249 1.159-1.249 2.573s1.121 2.458 1.249 2.573c0.386 0.345 0.978 0.313 1.324-0.073s0.313-0.978-0.073-1.324zM8.623 7.741c-0.132-0.118-0.625-0.664-0.625-1.176 0-0.491 0.466-1.030 0.625-1.176 0.797-0.714 1.236-1.628 1.236-2.573s-0.439-1.859-1.236-2.573c-0.386-0.345-0.978-0.313-1.323 0.073s-0.313 0.978 0.073 1.323c0.401 0.359 0.612 0.766 0.612 1.176s-0.212 0.818-0.612 1.176c-0.128 0.115-1.249 1.159-1.249 2.573s1.121 2.458 1.249 2.573c0.386 0.345 0.978 0.313 1.323-0.073s0.313-0.978-0.073-1.324z"></path>
</symbol>
<symbol id="icon-bread" viewBox="0 0 36 32">
<path fill="#5ab963" style="fill: var(--color2, #5ab963)" d="M35.14 18.835c1.030-1.259 1.329-2.769 0.89-4.488-0.426-1.668-1.672-3.011-3.332-3.593-1.692-0.593-3.551-0.315-4.973 0.743-0.222 0.165-0.966 0.7-1.233 0.806-0.138 0.055-0.258 0.136-0.357 0.234-5.463 3.12-12.439 2.774-17.566-1.040-0.252-0.188-0.519-0.35-0.796-0.489-0.006-0.003-0.012-0.006-0.018-0.009-1.288-0.636-2.805-0.732-4.213-0.239-1.673 0.586-2.924 1.927-3.349 3.587-0.411 1.609-0.061 3.249 0.88 4.502-0.412 0.544-0.716 1.162-0.88 1.807-0.442 1.731-0.125 3.251 0.943 4.517 1.057 1.253 2.631 2.015 3.822 2.736 3.964 2.396 8.524 3.663 13.189 3.663 7.765 0 12.524-3.261 15.511-5.067 2.003-1.211 2.956-3.561 2.372-5.849-0.166-0.65-0.474-1.273-0.89-1.82zM32.555 24.708l-2.322 1.404c-7.455 4.507-16.717 4.507-24.172 0-2.365-1.43-4.487-2.302-3.813-4.94 0.082-0.322 0.225-0.633 0.416-0.918 2.794 1.639 3.639 2.191 5.465 2.969l0.517 1.283c0.166 0.411 0.564 0.661 0.985 0.661 0.131 0 0.264-0.024 0.393-0.075 0.401-0.159 0.65-0.535 0.665-0.937 1.196 0.364 2.419 0.64 3.66 0.826l0.657 1.629c0.217 0.539 0.834 0.801 1.378 0.586s0.808-0.827 0.59-1.367l-0.244-0.605c0.47 0.026 0.942 0.040 1.415 0.040 0.879 0 1.755-0.045 2.624-0.134l0.597 1.48c0.217 0.539 0.834 0.801 1.378 0.586s0.808-0.827 0.591-1.367l-0.409-1.014c1.509-0.286 2.987-0.708 4.417-1.259l0.383 0.951c0.166 0.411 0.564 0.661 0.985 0.661 0.131 0 0.264-0.024 0.393-0.075 0.544-0.216 0.808-0.828 0.591-1.367l-0.409-1.013c1.387-0.673 3.663-2.045 4.267-2.463 0.194 0.286 0.337 0.6 0.42 0.924 0.36 1.409-0.197 2.797-1.42 3.537zM30.233 19.804c-7.121 4.305-16.196 4.705-24.184-0.007-2.799-1.642-2.499-1.448-2.862-1.751-0.881-0.781-1.248-1.974-0.939-3.182 0.253-0.991 0.982-1.764 2-2.121 0.729-0.255 1.501-0.254 2.194-0.015l2.206 5.469c0.166 0.411 0.564 0.661 0.985 0.661 0.131 0 0.264-0.024 0.393-0.075 0.544-0.216 0.808-0.828 0.59-1.367l-1.149-2.85c1.223 0.665 2.514 1.183 3.853 1.547l1.688 4.186c0.166 0.411 0.564 0.661 0.985 0.661 0.131 0 0.264-0.024 0.393-0.076 0.544-0.216 0.808-0.827 0.59-1.367l-1.175-2.913c0.772 0.098 1.555 0.148 2.346 0.148 0.591 0 1.177-0.028 1.757-0.083l1.463 3.629c0.166 0.411 0.564 0.661 0.985 0.661 0.131 0 0.264-0.024 0.393-0.075 0.544-0.216 0.808-0.828 0.591-1.367l-1.283-3.18c1.498-0.324 2.942-0.837 4.308-1.529l1.366 3.387c0.166 0.411 0.564 0.661 0.985 0.661 0.131 0 0.264-0.024 0.393-0.076 0.544-0.216 0.808-0.827 0.59-1.367l-1.486-3.685c0.266-0.177 0.529-0.361 0.787-0.553 0.854-0.635 1.973-0.8 2.995-0.442 1.005 0.352 1.728 1.127 1.983 2.127 0.674 2.638-1.382 3.514-3.742 4.941z"></path>
<path fill="#000" style="fill: var(--color3, #000)" d="M13.453 6.14c1.006-0.665 1.607-1.778 1.607-2.978s-0.601-2.312-1.607-2.977c-0.487-0.322-1.145-0.192-1.47 0.292s-0.193 1.136 0.294 1.458c0.421 0.278 0.663 0.726 0.663 1.228s-0.242 0.95-0.663 1.228c-1.006 0.665-1.607 1.778-1.607 2.978s0.601 2.312 1.607 2.978c0.487 0.322 1.146 0.191 1.47-0.292s0.193-1.136-0.294-1.458c-0.421-0.278-0.663-0.726-0.663-1.228s0.242-0.95 0.663-1.228zM18.753 6.14c1.006-0.665 1.607-1.778 1.607-2.978s-0.601-2.312-1.607-2.977c-0.487-0.322-1.145-0.192-1.47 0.292s-0.193 1.136 0.294 1.458c0.421 0.278 0.663 0.726 0.663 1.228s-0.242 0.95-0.663 1.228c-1.006 0.665-1.607 1.778-1.607 2.978s0.601 2.312 1.607 2.978c0.487 0.322 1.145 0.191 1.47-0.292s0.193-1.136-0.294-1.458c-0.421-0.278-0.663-0.726-0.663-1.228s0.242-0.95 0.663-1.228zM24.053 6.14c1.006-0.665 1.607-1.778 1.607-2.978s-0.601-2.312-1.607-2.977c-0.487-0.322-1.145-0.192-1.47 0.292s-0.193 1.136 0.294 1.458c0.421 0.278 0.663 0.726 0.663 1.228s-0.242 0.95-0.663 1.228c-1.006 0.665-1.607 1.778-1.607 2.978s0.601 2.312 1.607 2.978c0.487 0.322 1.145 0.191 1.47-0.292s0.193-1.136-0.294-1.458c-0.421-0.278-0.663-0.726-0.663-1.228s0.242-0.95 0.663-1.228z"></path>
</symbol>
<symbol id="icon-day" viewBox="0 0 32 32">
<path fill="#5ab963" style="fill: var(--color2, #5ab963)" d="M29.188 1.875h-1.046v-0.938c0-0.518-0.42-0.938-0.938-0.938s-0.938 0.42-0.938 0.938v0.938h-5.687v-0.938c0-0.518-0.42-0.938-0.938-0.938s-0.938 0.42-0.938 0.938v0.938h-5.625v-0.938c0-0.518-0.42-0.938-0.938-0.938s-0.938 0.42-0.938 0.938v0.938h-5.688v-0.938c0-0.518-0.42-0.938-0.938-0.938s-0.938 0.42-0.938 0.938v0.938h-0.829c-1.551 0-2.813 1.262-2.813 2.813 0 1.032 0 23.17 0 24.5 0 1.551 1.262 2.812 2.813 2.812h26.375c1.551 0 2.812-1.262 2.812-2.812 0-1.33 0-23.468 0-24.5 0-1.551-1.262-2.813-2.812-2.813zM30.125 29.188c0 0.517-0.421 0.938-0.938 0.938h-3.408l4.345-4.345v3.408zM24.454 28.799v-4.299h4.299l-4.299 4.299zM30.125 22.625h-6.608c-0.518 0-0.938 0.42-0.938 0.938v6.563h-19.767c-0.517 0-0.938-0.421-0.938-0.938v-19.813h28.25v13.25zM30.125 7.007c0 0.028 0 0.036 0 0.035 0 0.054 0 0.181 0 0.458h-28.25c0-0.879 0-0.345 0-2.813 0-0.517 0.421-0.938 0.938-0.938h0.829v0.938c0 0.518 0.42 0.938 0.938 0.938s0.938-0.42 0.938-0.938v-0.937h5.688v0.938c0 0.518 0.42 0.938 0.938 0.938s0.938-0.42 0.938-0.938v-0.938h5.625v0.938c0 0.518 0.42 0.938 0.938 0.938s0.938-0.42 0.938-0.938v-0.938h5.687v0.938c0 0.518 0.42 0.938 0.938 0.938s0.938-0.42 0.938-0.938v-0.938h1.046c0.517 0 0.938 0.421 0.938 0.938 0 1.709 0 2.199 0 2.319z"></path>
<path fill="#000" style="fill: var(--color3, #000)" d="M10.329 11.25h-3.812c-0.518 0-0.938 0.42-0.938 0.938v3.75c0 0.518 0.42 0.938 0.938 0.938h3.812c0.518 0 0.938-0.42 0.938-0.938v-3.75c0-0.518-0.42-0.938-0.938-0.938zM9.392 15h-1.938v-1.875h1.938v1.875zM10.329 18.875h-3.812c-0.518 0-0.938 0.42-0.938 0.938v3.75c0 0.518 0.42 0.938 0.938 0.938h3.812c0.518 0 0.938-0.42 0.938-0.938v-3.75c0-0.518-0.42-0.938-0.938-0.938zM9.392 22.625h-1.938v-1.875h1.938v1.875zM17.829 11.25h-3.75c-0.518 0-0.938 0.42-0.938 0.938v3.75c0 0.518 0.42 0.938 0.938 0.938h3.75c0.518 0 0.938-0.42 0.938-0.938v-3.75c0-0.518-0.42-0.938-0.938-0.938zM16.892 15h-1.875v-1.875h1.875v1.875zM17.829 18.875h-3.75c-0.518 0-0.938 0.42-0.938 0.938v3.75c0 0.518 0.42 0.938 0.938 0.938h3.75c0.518 0 0.938-0.42 0.938-0.938v-3.75c0-0.518-0.42-0.938-0.938-0.938zM16.892 22.625h-1.875v-1.875h1.875v1.875zM25.392 11.25h-3.812c-0.518 0-0.938 0.42-0.938 0.938v3.75c0 0.518 0.42 0.938 0.938 0.938h3.812c0.518 0 0.938-0.42 0.938-0.938v-3.75c0-0.518-0.42-0.938-0.938-0.938zM24.454 15h-1.938v-1.875h1.938v1.875z"></path>
</symbol>
<symbol id="icon-footer" viewBox="0 0 134 32">
<path fill="#fff" style="fill: var(--color1, #fff)" d="M27.697 6.045c-1.127 0-1.913-0.535-2.356-1.605-1.639 0-3.438 0.398-5.396 1.195-1.218 0.501-2.038 0.962-2.459 1.383s-0.646 0.751-0.674 0.99 0.088 0.441 0.35 0.606c0.262 0.165 0.629 0.322 1.101 0.47s1.022 0.296 1.648 0.444c3.279 0.763 5.356 1.292 6.233 1.588 1.742 0.581 3.045 1.218 3.91 1.912 0.82 0.694 1.229 1.639 1.229 2.835 0 0.99-0.304 1.827-0.913 2.51s-1.415 1.292-2.416 1.827c-1.002 0.535-2.12 1.010-3.355 1.426s-2.539 0.771-3.91 1.067c-1.372 0.296-2.724 0.541-4.055 0.734-2.607 0.364-4.832 0.546-6.677 0.546-3.358 0-5.948-0.404-7.769-1.212-0.683-0.307-1.241-1.076-1.673-2.305-0.342-1.013-0.512-1.847-0.512-2.502s0.057-1.016 0.171-1.084c0.114-0.068 0.347-0.071 0.7-0.009s0.814 0.168 1.383 0.316l2.049 0.546c3.176 0.797 6.534 1.195 10.075 1.195 2.607 0 4.815-0.233 6.625-0.7 1.070-0.285 1.639-0.603 1.708-0.956 0.045-0.307-0.797-0.689-2.527-1.144-0.785-0.216-1.696-0.444-2.732-0.683-5.020-1.218-8.048-2.004-9.084-2.356s-1.71-0.666-2.023-0.939c-0.313-0.273-0.572-0.575-0.777-0.905-0.376-0.649-0.564-1.266-0.564-1.853s0.031-1.039 0.094-1.358c0.063-0.319 0.151-0.615 0.265-0.888 0.239-0.558 0.541-0.939 0.905-1.144 2.926-1.639 7.223-3.079 12.892-4.32 5.043-1.116 9.192-1.673 12.448-1.673 0.66 0 1.155 0.114 1.486 0.342 0.569 0.421 0.82 0.871 0.751 1.349s-0.213 0.919-0.435 1.323c-0.222 0.404-0.498 0.768-0.828 1.093s-0.697 0.609-1.101 0.854c-0.404 0.245-0.822 0.447-1.255 0.606-0.865 0.319-1.708 0.478-2.527 0.478zM40.555 18.954c0.376-0.159 0.899-0.41 1.571-0.751 4.11-2.106 6.364-3.267 6.762-3.483l0.717-0.393c0.74-0.478 1.081-0.854 1.025-1.127-0.125-0.581-0.438-0.817-0.939-0.709s-1.022 0.253-1.562 0.436c-0.541 0.182-1.113 0.404-1.716 0.666-1.264 0.524-2.374 1.047-3.33 1.571-3.347 1.924-5.362 3.091-6.045 3.5-0.489 1.104-0.928 2.203-1.315 3.296l-2.066 5.84c-0.649 1.81-1.303 3.034-1.964 3.671-0.353 0.353-0.746 0.529-1.178 0.529-1.070 0-1.913-0.373-2.527-1.119s-0.922-1.69-0.922-2.835 0.148-2.271 0.444-3.381c0.296-1.11 0.706-2.234 1.229-3.372 1.059-2.3 2.476-4.445 4.252-6.438 1.081-2.903 2.88-5.72 5.396-8.452 1.537-1.662 2.965-2.835 4.286-3.518 0.66-0.341 1.224-0.512 1.691-0.512s0.82 0.105 1.059 0.316 0.359 0.472 0.359 0.785c0 0.313-0.097 0.709-0.29 1.187s-0.455 1.013-0.786 1.605-0.717 1.224-1.161 1.895l-1.417 2.066c-0.114 0.171-0.171 0.324-0.171 0.461 0 0.216 0.131 0.324 0.393 0.324 0.296 0 0.842-0.188 1.639-0.563l2.732-1.264c2.391-1.081 4.679-1.622 6.865-1.622 1.138 0 2.208 0.541 3.21 1.622 1.013 1.093 1.52 2.265 1.52 3.518 0 1.935-0.791 3.426-2.374 4.474l-2.117 1.4c-0.763 0.478-1.548 0.951-2.356 1.417l-2.459 1.349c-2.766 1.434-4.904 2.151-6.412 2.151s-2.604-0.188-3.287-0.563c-0.683-0.376-1.025-0.905-1.025-1.588 0-0.922 0.757-1.719 2.271-2.391zM75.919 12.704c0 0.615 0.524 0.922 1.571 0.922 0.774 0 1.787-0.376 3.039-1.127l1.366-0.751c0.421-0.239 0.788-0.359 1.101-0.359s0.561 0.097 0.743 0.29c0.182 0.194 0.273 0.461 0.273 0.803s-0.114 0.737-0.342 1.187c-0.228 0.45-0.541 0.922-0.939 1.417s-0.865 0.985-1.4 1.469-1.11 0.919-1.725 1.306c-1.366 0.854-2.635 1.281-3.808 1.281-1.241 0-2.231-0.211-2.971-0.632-0.228-0.137-0.45-0.279-0.666-0.427-1.218 1.389-2.983 2.664-5.294 3.825-2.459 1.229-4.605 1.844-6.438 1.844-1.924 0-3.444-0.757-4.559-2.271-0.899-1.229-1.349-2.476-1.349-3.74 0-1.821 0.973-3.557 2.92-5.208 1.434-1.207 2.82-2.123 4.158-2.749s2.547-1.11 3.629-1.451c2.288-0.717 4.349-1.076 6.181-1.076 0.82 0 1.551 0.157 2.194 0.47s1.118 0.629 1.426 0.948c0.729 0.717 1.093 1.634 1.093 2.749 0 0.33-0.034 0.586-0.103 0.768s-0.102 0.353-0.102 0.512zM61.951 15.932l-0.017 0.051v0.017c0 0.49 0.108 0.808 0.324 0.956 0.524 0.319 1.076 0.401 1.656 0.248s1.133-0.344 1.656-0.572c1.298-0.558 2.47-1.264 3.518-2.117-0.182-0.364-0.273-0.74-0.273-1.127 0-0.82 0.359-1.639 1.076-2.459-0.911 0-2.14 0.427-3.688 1.281-1.708 0.945-2.988 1.918-3.842 2.92-0.273 0.341-0.41 0.609-0.41 0.803zM99.142 12.704c0 0.615 0.524 0.922 1.571 0.922 0.774 0 1.787-0.376 3.039-1.127l1.366-0.751c0.421-0.239 0.788-0.359 1.101-0.359s0.561 0.097 0.742 0.29c0.182 0.194 0.274 0.461 0.274 0.803s-0.114 0.737-0.342 1.187c-0.227 0.45-0.54 0.922-0.939 1.417s-0.865 0.985-1.4 1.469-1.11 0.919-1.725 1.306c-1.366 0.854-2.635 1.281-3.808 1.281-1.241 0-2.231-0.211-2.971-0.632-0.228-0.137-0.45-0.279-0.666-0.427-1.218 1.389-2.983 2.664-5.293 3.825-2.459 1.229-4.605 1.844-6.438 1.844-1.924 0-3.444-0.757-4.559-2.271-0.899-1.229-1.349-2.476-1.349-3.74 0-1.821 0.973-3.557 2.92-5.208 1.434-1.207 2.82-2.123 4.158-2.749s2.547-1.11 3.629-1.451c2.288-0.717 4.349-1.076 6.181-1.076 0.82 0 1.551 0.157 2.194 0.47s1.118 0.629 1.426 0.948c0.729 0.717 1.093 1.634 1.093 2.749 0 0.33-0.034 0.586-0.103 0.768s-0.102 0.353-0.102 0.512zM85.174 15.932l-0.017 0.051v0.017c0 0.49 0.108 0.808 0.324 0.956 0.524 0.319 1.076 0.401 1.656 0.248s1.133-0.344 1.656-0.572c1.298-0.558 2.47-1.264 3.518-2.117-0.182-0.364-0.273-0.74-0.273-1.127 0-0.82 0.359-1.639 1.076-2.459-0.911 0-2.14 0.427-3.688 1.281-1.708 0.945-2.988 1.918-3.842 2.92-0.273 0.341-0.41 0.609-0.41 0.803zM123.27 14.053c0 1.036 0.301 1.554 0.905 1.554 1.481 0 3.404-1.002 5.772-3.005l0.461-0.393c0.923-0.615 1.67-0.922 2.245-0.922s0.94 0.085 1.093 0.256c0.154 0.171 0.23 0.444 0.23 0.82 0 0.842-0.427 1.736-1.281 2.681-1.275 1.548-3.022 3.017-5.242 4.406-2.573 1.617-4.878 2.425-6.916 2.425-1.423 0-2.317-0.791-2.681-2.374-0.102-0.41-0.177-0.802-0.222-1.178-0.114-0.911-0.234-1.417-0.358-1.52-0.126-0.102-0.373-0.094-0.743 0.026s-0.807 0.319-1.314 0.598-1.068 0.618-1.682 1.016c-3.257 2.163-5.129 3.398-5.618 3.706-1.172 0.729-1.964 1.093-2.374 1.093s-0.811-0.085-1.204-0.256c-0.393-0.171-0.737-0.387-1.033-0.649-0.615-0.581-0.922-1.173-0.922-1.776 0-3.449 0.751-6.466 2.254-9.050 1.002-1.742 2.231-2.948 3.688-3.62 0.74-0.353 1.537-0.529 2.39-0.529 1.559 0 2.34 0.512 2.34 1.537 0 0.626-0.37 1.651-1.11 3.074l-0.512 1.007c-0.365 0.694-0.541 1.087-0.53 1.178 0.068 0.341 0.223 0.512 0.462 0.512 0.261 0 0.649-0.194 1.161-0.581l3.142-2.339 1.571-1.093c1.81-1.184 3.141-1.776 3.996-1.776 0.455 0 0.87 0.182 1.246 0.546 0.694 0.66 1.042 1.235 1.042 1.725 0 0.159-0.015 0.353-0.043 0.581-0.029 0.228-0.060 0.472-0.094 0.734l-0.068 0.803c-0.034 0.273-0.051 0.535-0.051 0.786z"></path>
</symbol>
<symbol id="icon-IMAGE-5" viewBox="0 0 32 32">
<path  d="M5.333 2.667c-1.473 0-2.667 1.194-2.667 2.667v21.333c0 1.473 1.194 2.667 2.667 2.667h21.333c1.473 0 2.667-1.194 2.667-2.667v-21.333c0-1.473-1.194-2.667-2.667-2.667h-21.333zM5.333 0h21.333c2.946 0 5.333 2.388 5.333 5.333v21.333c0 2.946-2.388 5.333-5.333 5.333h-21.333c-2.946 0-5.333-2.388-5.333-5.333v-21.333c0-2.946 2.388-5.333 5.333-5.333z"></path>
<path  d="M16 18.667c1.473 0 2.667-1.194 2.667-2.667s-1.194-2.667-2.667-2.667c-1.473 0-2.667 1.194-2.667 2.667s1.194 2.667 2.667 2.667zM16 21.333c-2.946 0-5.333-2.388-5.333-5.333s2.388-5.333 5.333-5.333c2.946 0 5.333 2.388 5.333 5.333s-2.388 5.333-5.333 5.333z"></path>
<path  d="M24 10.667c1.473 0 2.667-1.194 2.667-2.667s-1.194-2.667-2.667-2.667c-1.473 0-2.667 1.194-2.667 2.667s1.194 2.667 2.667 2.667z"></path>
</symbol>
<symbol id="icon-header" viewBox="0 0 134 32">
<path fill="#fff" style="fill: var(--color1, #fff)" d="M27.697 6.045c-1.127 0-1.913-0.535-2.356-1.605-1.639 0-3.438 0.398-5.396 1.195-1.218 0.501-2.038 0.962-2.459 1.383s-0.646 0.751-0.674 0.99 0.088 0.441 0.35 0.606c0.262 0.165 0.629 0.322 1.101 0.47s1.022 0.296 1.648 0.444c3.279 0.763 5.356 1.292 6.233 1.588 1.742 0.581 3.045 1.218 3.91 1.912 0.82 0.694 1.229 1.639 1.229 2.835 0 0.99-0.304 1.827-0.913 2.51s-1.415 1.292-2.416 1.827c-1.002 0.535-2.12 1.010-3.355 1.426s-2.539 0.771-3.91 1.067c-1.372 0.296-2.724 0.541-4.055 0.734-2.607 0.364-4.832 0.546-6.677 0.546-3.358 0-5.948-0.404-7.769-1.212-0.683-0.307-1.241-1.076-1.673-2.305-0.342-1.013-0.512-1.847-0.512-2.502s0.057-1.016 0.171-1.084c0.114-0.068 0.347-0.071 0.7-0.009s0.814 0.168 1.383 0.316l2.049 0.546c3.176 0.797 6.534 1.195 10.075 1.195 2.607 0 4.815-0.233 6.625-0.7 1.070-0.285 1.639-0.603 1.708-0.956 0.045-0.307-0.797-0.689-2.527-1.144-0.785-0.216-1.696-0.444-2.732-0.683-5.020-1.218-8.048-2.004-9.084-2.356s-1.71-0.666-2.023-0.939c-0.313-0.273-0.572-0.575-0.777-0.905-0.376-0.649-0.564-1.266-0.564-1.853s0.031-1.039 0.094-1.358c0.063-0.319 0.151-0.615 0.265-0.888 0.239-0.558 0.541-0.939 0.905-1.144 2.926-1.639 7.223-3.079 12.892-4.32 5.043-1.116 9.192-1.673 12.448-1.673 0.66 0 1.155 0.114 1.486 0.342 0.569 0.421 0.82 0.871 0.751 1.349s-0.213 0.919-0.435 1.323c-0.222 0.404-0.498 0.768-0.828 1.093s-0.697 0.609-1.101 0.854c-0.404 0.245-0.822 0.447-1.255 0.606-0.865 0.319-1.708 0.478-2.527 0.478zM40.555 18.954c0.376-0.159 0.899-0.41 1.571-0.751 4.11-2.106 6.364-3.267 6.762-3.483l0.717-0.393c0.74-0.478 1.081-0.854 1.025-1.127-0.125-0.581-0.438-0.817-0.939-0.709s-1.022 0.253-1.562 0.436c-0.541 0.182-1.113 0.404-1.716 0.666-1.264 0.524-2.374 1.047-3.33 1.571-3.347 1.924-5.362 3.091-6.045 3.5-0.489 1.104-0.928 2.203-1.315 3.296l-2.066 5.84c-0.649 1.81-1.303 3.034-1.964 3.671-0.353 0.353-0.746 0.529-1.178 0.529-1.070 0-1.913-0.373-2.527-1.119s-0.922-1.69-0.922-2.835 0.148-2.271 0.444-3.381c0.296-1.11 0.706-2.234 1.229-3.372 1.059-2.3 2.476-4.445 4.252-6.438 1.081-2.903 2.88-5.72 5.396-8.452 1.537-1.662 2.965-2.835 4.286-3.518 0.66-0.341 1.224-0.512 1.691-0.512s0.82 0.105 1.059 0.316 0.359 0.472 0.359 0.785c0 0.313-0.097 0.709-0.29 1.187s-0.455 1.013-0.786 1.605-0.717 1.224-1.161 1.895l-1.417 2.066c-0.114 0.171-0.171 0.324-0.171 0.461 0 0.216 0.131 0.324 0.393 0.324 0.296 0 0.842-0.188 1.639-0.563l2.732-1.264c2.391-1.081 4.679-1.622 6.865-1.622 1.138 0 2.208 0.541 3.21 1.622 1.013 1.093 1.52 2.265 1.52 3.518 0 1.935-0.791 3.426-2.374 4.474l-2.117 1.4c-0.763 0.478-1.548 0.951-2.356 1.417l-2.459 1.349c-2.766 1.434-4.904 2.151-6.412 2.151s-2.604-0.188-3.287-0.563c-0.683-0.376-1.025-0.905-1.025-1.588 0-0.922 0.757-1.719 2.271-2.391zM75.919 12.704c0 0.615 0.524 0.922 1.571 0.922 0.774 0 1.787-0.376 3.039-1.127l1.366-0.751c0.421-0.239 0.788-0.359 1.101-0.359s0.561 0.097 0.743 0.29c0.182 0.194 0.273 0.461 0.273 0.803s-0.114 0.737-0.342 1.187c-0.228 0.45-0.541 0.922-0.939 1.417s-0.865 0.985-1.4 1.469-1.11 0.919-1.725 1.306c-1.366 0.854-2.635 1.281-3.808 1.281-1.241 0-2.231-0.211-2.971-0.632-0.228-0.137-0.45-0.279-0.666-0.427-1.218 1.389-2.983 2.664-5.294 3.825-2.459 1.229-4.605 1.844-6.438 1.844-1.924 0-3.444-0.757-4.559-2.271-0.899-1.229-1.349-2.476-1.349-3.74 0-1.821 0.973-3.557 2.92-5.208 1.434-1.207 2.82-2.123 4.158-2.749s2.547-1.11 3.629-1.451c2.288-0.717 4.349-1.076 6.181-1.076 0.82 0 1.551 0.157 2.194 0.47s1.118 0.629 1.426 0.948c0.729 0.717 1.093 1.634 1.093 2.749 0 0.33-0.034 0.586-0.103 0.768s-0.102 0.353-0.102 0.512zM61.951 15.932l-0.017 0.051v0.017c0 0.49 0.108 0.808 0.324 0.956 0.524 0.319 1.076 0.401 1.656 0.248s1.133-0.344 1.656-0.572c1.298-0.558 2.47-1.264 3.518-2.117-0.182-0.364-0.273-0.74-0.273-1.127 0-0.82 0.359-1.639 1.076-2.459-0.911 0-2.14 0.427-3.688 1.281-1.708 0.945-2.988 1.918-3.842 2.92-0.273 0.341-0.41 0.609-0.41 0.803zM99.142 12.704c0 0.615 0.524 0.922 1.571 0.922 0.774 0 1.787-0.376 3.039-1.127l1.366-0.751c0.421-0.239 0.788-0.359 1.101-0.359s0.561 0.097 0.742 0.29c0.182 0.194 0.274 0.461 0.274 0.803s-0.114 0.737-0.342 1.187c-0.227 0.45-0.54 0.922-0.939 1.417s-0.865 0.985-1.4 1.469-1.11 0.919-1.725 1.306c-1.366 0.854-2.635 1.281-3.808 1.281-1.241 0-2.231-0.211-2.971-0.632-0.228-0.137-0.45-0.279-0.666-0.427-1.218 1.389-2.983 2.664-5.293 3.825-2.459 1.229-4.605 1.844-6.438 1.844-1.924 0-3.444-0.757-4.559-2.271-0.899-1.229-1.349-2.476-1.349-3.74 0-1.821 0.973-3.557 2.92-5.208 1.434-1.207 2.82-2.123 4.158-2.749s2.547-1.11 3.629-1.451c2.288-0.717 4.349-1.076 6.181-1.076 0.82 0 1.551 0.157 2.194 0.47s1.118 0.629 1.426 0.948c0.729 0.717 1.093 1.634 1.093 2.749 0 0.33-0.034 0.586-0.103 0.768s-0.102 0.353-0.102 0.512zM85.174 15.932l-0.017 0.051v0.017c0 0.49 0.108 0.808 0.324 0.956 0.524 0.319 1.076 0.401 1.656 0.248s1.133-0.344 1.656-0.572c1.298-0.558 2.47-1.264 3.518-2.117-0.182-0.364-0.273-0.74-0.273-1.127 0-0.82 0.359-1.639 1.076-2.459-0.911 0-2.14 0.427-3.688 1.281-1.708 0.945-2.988 1.918-3.842 2.92-0.273 0.341-0.41 0.609-0.41 0.803zM123.27 14.053c0 1.036 0.301 1.554 0.905 1.554 1.481 0 3.404-1.002 5.772-3.005l0.461-0.393c0.923-0.615 1.67-0.922 2.245-0.922s0.94 0.085 1.093 0.256c0.154 0.171 0.23 0.444 0.23 0.82 0 0.842-0.427 1.736-1.281 2.681-1.275 1.548-3.022 3.017-5.242 4.406-2.573 1.617-4.878 2.425-6.916 2.425-1.423 0-2.317-0.791-2.681-2.374-0.102-0.41-0.177-0.802-0.222-1.178-0.114-0.911-0.234-1.417-0.358-1.52-0.126-0.102-0.373-0.094-0.743 0.026s-0.807 0.319-1.314 0.598-1.068 0.618-1.682 1.016c-3.257 2.163-5.129 3.398-5.618 3.706-1.172 0.729-1.964 1.093-2.374 1.093s-0.811-0.085-1.204-0.256c-0.393-0.171-0.737-0.387-1.033-0.649-0.615-0.581-0.922-1.173-0.922-1.776 0-3.449 0.751-6.466 2.254-9.050 1.002-1.742 2.231-2.948 3.688-3.62 0.74-0.353 1.537-0.529 2.39-0.529 1.559 0 2.34 0.512 2.34 1.537 0 0.626-0.37 1.651-1.11 3.074l-0.512 1.007c-0.365 0.694-0.541 1.087-0.53 1.178 0.068 0.341 0.223 0.512 0.462 0.512 0.261 0 0.649-0.194 1.161-0.581l3.142-2.339 1.571-1.093c1.81-1.184 3.141-1.776 3.996-1.776 0.455 0 0.87 0.182 1.246 0.546 0.694 0.66 1.042 1.235 1.042 1.725 0 0.159-0.015 0.353-0.043 0.581-0.029 0.228-0.060 0.472-0.094 0.734l-0.068 0.803c-0.034 0.273-0.051 0.535-0.051 0.786z"></path>
</symbol>
</defs>
</svg>
